<svg width="79" height="19" viewBox="0 0 79 19" fill="none" xmlns="http://www.w3.org/2000/svg">
<path d="M34 17H34.01" stroke="black" stroke-width="3" stroke-linecap="round" stroke-linejoin="round"/>
<path d="M24 5.82015C26.7501 3.36037 30.3103 2.00049 34 2.00049C37.6897 2.00049 41.2499 3.36037 44 5.82015" stroke="black" stroke-width="3" stroke-linecap="round" stroke-linejoin="round"/>
<path d="M27 9.85906C28.8693 8.02679 31.3825 7.00049 34 7.00049C36.6175 7.00049 39.1307 8.02679 41 9.85906" stroke="black" stroke-width="3" stroke-linecap="round" stroke-linejoin="round"/>
<path d="M30.5 13.4293C31.4346 12.5132 32.6912 12 34 12C35.3088 12 36.5654 12.5132 37.5 13.4293" stroke="black" stroke-width="3" stroke-linecap="round" stroke-linejoin="round"/>
<path d="M70.375 4H54.625C53.1753 4 52 5.16406 52 6.6V14.4C52 15.8359 53.1753 17 54.625 17H70.375C71.8247 17 73 15.8359 73 14.4V6.6C73 5.16406 71.8247 4 70.375 4Z" stroke="black" stroke-width="2" stroke-linecap="round" stroke-linejoin="round"/>
<path d="M77 9V12" stroke="black" stroke-width="3" stroke-linecap="round" stroke-linejoin="round"/>
<path d="M59.6144 6.62784C59.9885 6.62784 60.3483 6.69058 60.694 6.81605C61.042 6.94152 61.3521 7.14157 61.6244 7.41619C61.899 7.69081 62.1156 8.0554 62.2742 8.50994C62.4352 8.96212 62.5169 9.51728 62.5193 10.1754C62.5193 10.7933 62.4494 11.3449 62.3097 11.8303C62.1724 12.3132 61.9748 12.724 61.7167 13.0625C61.4587 13.401 61.1473 13.6591 60.7828 13.8366C60.4182 14.0118 60.011 14.0994 59.5612 14.0994C59.0758 14.0994 58.6473 14.0059 58.2757 13.8189C57.904 13.6295 57.6045 13.3726 57.3772 13.0483C57.1523 12.7216 57.0162 12.3546 56.9688 11.9474H58.4852C58.5444 12.2126 58.6686 12.4186 58.858 12.5653C59.0474 12.7098 59.2818 12.782 59.5612 12.782C60.0347 12.782 60.3945 12.576 60.6407 12.1641C60.8869 11.7498 61.0112 11.1828 61.0136 10.4631H60.9639C60.855 10.6761 60.7082 10.8596 60.5235 11.0135C60.3389 11.165 60.127 11.2822 59.8879 11.3651C59.6511 11.4479 59.399 11.4893 59.1315 11.4893C58.703 11.4893 58.3206 11.3887 57.9845 11.1875C57.6483 10.9863 57.3831 10.7093 57.189 10.3565C56.9949 10.0038 56.8978 9.60133 56.8978 9.14915C56.8954 8.66146 57.0079 8.22704 57.2352 7.84588C57.4624 7.46473 57.7797 7.16643 58.1869 6.95099C58.5964 6.73319 59.0723 6.62547 59.6144 6.62784ZM59.6251 7.83523C59.386 7.83523 59.1729 7.89205 58.9859 8.00568C58.8012 8.11932 58.6544 8.27202 58.5455 8.46378C58.439 8.65554 58.3869 8.86979 58.3893 9.10653C58.3893 9.34564 58.4414 9.56108 58.5455 9.75284C58.6521 9.94223 58.7965 10.0937 58.9788 10.2074C59.1634 10.3187 59.3741 10.3743 59.6109 10.3743C59.7884 10.3743 59.953 10.3411 60.1045 10.2749C60.256 10.2086 60.3874 10.1174 60.4987 10.0014C60.6123 9.88305 60.7011 9.74692 60.765 9.59304C60.8289 9.43916 60.8609 9.2758 60.8609 9.10298C60.8585 8.87334 60.8041 8.66264 60.6975 8.47088C60.591 8.27912 60.4442 8.12524 60.2572 8.00923C60.0702 7.89323 59.8595 7.83523 59.6251 7.83523ZM66.2977 14.0994C65.7508 14.0994 65.2643 14.0107 64.8382 13.8331C64.4144 13.6532 64.0818 13.4081 63.8403 13.098C63.5988 12.7879 63.4781 12.4363 63.4781 12.0433C63.4781 11.7403 63.5467 11.4621 63.684 11.2088C63.8237 10.9531 64.0131 10.7412 64.2522 10.5732C64.4913 10.4027 64.7588 10.2938 65.0548 10.2464V10.1967C64.6665 10.1186 64.3517 9.9304 64.1102 9.6321C63.8687 9.33144 63.748 8.98224 63.748 8.58452C63.748 8.2081 63.858 7.87311 64.0782 7.57955C64.2984 7.28362 64.6002 7.05161 64.9838 6.88352C65.3696 6.71307 65.8076 6.62784 66.2977 6.62784C66.7877 6.62784 67.2245 6.71307 67.608 6.88352C67.9939 7.05398 68.297 7.28717 68.5171 7.5831C68.7373 7.87666 68.8486 8.21046 68.8509 8.58452C68.8486 8.98461 68.7255 9.33381 68.4816 9.6321C68.2378 9.9304 67.9253 10.1186 67.5441 10.1967V10.2464C67.8353 10.2938 68.0993 10.4027 68.336 10.5732C68.5751 10.7412 68.7645 10.9531 68.9042 11.2088C69.0463 11.4621 69.1185 11.7403 69.1208 12.0433C69.1185 12.4363 68.9965 12.7879 68.7551 13.098C68.5136 13.4081 68.1798 13.6532 67.7536 13.8331C67.3299 14.0107 66.8445 14.0994 66.2977 14.0994ZM66.2977 12.9702C66.5415 12.9702 66.7546 12.9264 66.9369 12.8388C67.1192 12.7488 67.2612 12.6257 67.363 12.4695C67.4672 12.3108 67.5193 12.1286 67.5193 11.9226C67.5193 11.7119 67.466 11.526 67.3595 11.3651C67.2529 11.2017 67.1085 11.0739 66.9262 10.9815C66.7439 10.8868 66.5344 10.8395 66.2977 10.8395C66.0633 10.8395 65.8538 10.8868 65.6691 10.9815C65.4845 11.0739 65.3389 11.2017 65.2323 11.3651C65.1282 11.526 65.0761 11.7119 65.0761 11.9226C65.0761 12.1286 65.127 12.3108 65.2288 12.4695C65.3306 12.6257 65.4738 12.7488 65.6585 12.8388C65.8431 12.9264 66.0562 12.9702 66.2977 12.9702ZM66.2977 9.72088C66.5013 9.72088 66.6824 9.67945 66.841 9.59659C66.9996 9.51373 67.1239 9.39891 67.2139 9.25213C67.3038 9.10535 67.3488 8.93608 67.3488 8.74432C67.3488 8.55492 67.3038 8.3892 67.2139 8.24716C67.1239 8.10275 67.0008 7.99029 66.8445 7.9098C66.6883 7.82694 66.506 7.78551 66.2977 7.78551C66.0917 7.78551 65.9094 7.82694 65.7508 7.9098C65.5922 7.99029 65.4679 8.10275 65.3779 8.24716C65.2903 8.3892 65.2465 8.55492 65.2465 8.74432C65.2465 8.93608 65.2915 9.10535 65.3815 9.25213C65.4714 9.39891 65.5957 9.51373 65.7544 9.59659C65.913 9.67945 66.0941 9.72088 66.2977 9.72088Z" fill="black"/>
<rect x="12" y="1" width="4" height="17" rx="2" fill="black"/>
<rect y="11" width="4" height="7" rx="2" fill="black"/>
<rect x="6" y="6" width="4" height="12" rx="2" fill="black"/>
</svg>
